<svg width="24" height="24" viewBox="0 0 24 24" fill="none" xmlns="http://www.w3.org/2000/svg">
<path d="M3 20.4V3.6C3 3.44087 3.06321 3.28826 3.17574 3.17574C3.28826 3.06321 3.44087 3 3.6 3H20.4C20.5591 3 20.7117 3.06321 20.8243 3.17574C20.9368 3.28826 21 3.44087 21 3.6V20.4C21 20.5591 20.9368 20.7117 20.8243 20.8243C20.7117 20.9368 20.5591 21 20.4 21H3.6C3.44087 21 3.28826 20.9368 3.17574 20.8243C3.06321 20.7117 3 20.5591 3 20.4V20.4Z" stroke="#D9D9D9" stroke-width="1.5"/>
<path d="M12 15.5C12 15.8978 11.842 16.2794 11.5607 16.5607C11.2794 16.842 10.8978 17 10.5 17C10.1022 17 9.72064 16.842 9.43934 16.5607C9.15804 16.2794 9 15.8978 9 15.5C9 15.1022 9.15804 14.7206 9.43934 14.4393C9.72064 14.158 10.1022 14 10.5 14C10.8978 14 11.2794 14.158 11.5607 14.4393C11.842 14.7206 12 15.1022 12 15.5Z" fill="#D9D9D9"/>
<path d="M12 15.5V7.6C12 7.44087 12.0632 7.28826 12.1757 7.17574C12.2883 7.06321 12.4409 7 12.6 7H15M12 15.5C12 15.8978 11.842 16.2794 11.5607 16.5607C11.2794 16.842 10.8978 17 10.5 17C10.1022 17 9.72064 16.842 9.43934 16.5607C9.15804 16.2794 9 15.8978 9 15.5C9 15.1022 9.15804 14.7206 9.43934 14.4393C9.72064 14.158 10.1022 14 10.5 14C10.8978 14 11.2794 14.158 11.5607 14.4393C11.842 14.7206 12 15.1022 12 15.5V15.5Z" stroke="#D9D9D9" stroke-width="1.5" stroke-linecap="round"/>
</svg>
