<svg width="30" height="30" viewBox="0 0 30 30" fill="none" xmlns="http://www.w3.org/2000/svg">
<path fill-rule="evenodd" clip-rule="evenodd" d="M20.4063 18.6237L27.1313 25.3487C27.3676 25.5853 27.5004 25.906 27.5002 26.2404C27.5001 26.5748 27.3672 26.8955 27.1306 27.1319C26.8941 27.3682 26.5734 27.501 26.2389 27.5008C25.9045 27.5007 25.5839 27.3678 25.3475 27.1312L18.6225 20.4062C16.6122 21.9633 14.0841 22.6961 11.5527 22.4554C9.02123 22.2148 6.67656 21.0188 4.99562 19.1108C3.31468 17.2027 2.42375 14.726 2.50408 12.1844C2.58441 9.64284 3.62995 7.22731 5.42802 5.42924C7.22609 3.63117 9.64161 2.58563 12.1832 2.5053C14.7248 2.42497 17.2015 3.3159 19.1095 4.99684C21.0176 6.67778 22.2135 9.02246 22.4542 11.5539C22.6949 14.0853 21.9621 16.6134 20.405 18.6237H20.4063ZM12.5 20C14.4891 20 16.3968 19.2098 17.8033 17.8033C19.2098 16.3968 20 14.4891 20 12.5C20 10.5109 19.2098 8.60321 17.8033 7.19668C16.3968 5.79016 14.4891 4.99999 12.5 4.99999C10.5109 4.99999 8.60324 5.79016 7.19671 7.19668C5.79019 8.60321 5.00002 10.5109 5.00002 12.5C5.00002 14.4891 5.79019 16.3968 7.19671 17.8033C8.60324 19.2098 10.5109 20 12.5 20Z" fill="#81AFDD"/>
</svg>
